<?xml version="1.0" standalone="no"?>
<!DOCTYPE svg PUBLIC "-//W3C//DTD SVG 1.1//EN" "http://www.w3.org/Graphics/SVG/1.1/DTD/svg11.dtd">
<svg width="12cm" height="12cm" viewBox="0 0 4000 4000" version="1.1" xmlns="http://www.w3.org/2000/svg" xmlns:xlink="http://www.w3.org/1999/xlink">
<desc>"Gridless imaging from visibilities."</desc>
<g stroke-opacity="1.0" stroke-linejoin="round" stroke-width="2" >
<polygon points="2273,1727 2194,2000 2000,2000 2000,1806" fill="rgb(61,15,64)" stroke="rgb(61,15,64)" />
<polygon points="2273,2273 2000,2194 2000,2000 2194,2000" fill="rgb(59,13,56)" stroke="rgb(59,13,56)" />
<polygon points="1727,2273 1806,2000 2000,2000 2000,2194" fill="rgb(38,69,135)" stroke="rgb(38,69,135)" />
<polygon points="1727,1727 2000,1806 2000,2000 1806,2000" fill="rgb(35,5,16)" stroke="rgb(35,5,16)" />
<polygon points="2288,1501 2273,1727 2000,1806 2000,1613" fill="rgb(63,20,79)" stroke="rgb(63,20,79)" />
<polygon points="2499,1712 2387,2000 2194,2000 2273,1727" fill="rgb(55,10,44)" stroke="rgb(55,10,44)" />
<polygon points="2499,2288 2273,2273 2194,2000 2387,2000" fill="rgb(52,47,122)" stroke="rgb(52,47,122)" />
<polygon points="2288,2499 2000,2387 2000,2194 2273,2273" fill="rgb(255,255,255)" stroke="rgb(255,255,255)" />
<polygon points="1712,2499 1727,2273 2000,2194 2000,2387" fill="rgb(58,35,108)" stroke="rgb(58,35,108)" />
<polygon points="1501,2288 1613,2000 1806,2000 1727,2273" fill="rgb(63,23,86)" stroke="rgb(63,23,86)" />
<polygon points="1501,1712 1727,1727 1806,2000 1613,2000" fill="rgb(17,110,128)" stroke="rgb(17,110,128)" />
<polygon points="1712,1501 2000,1613 2000,1806 1727,1727" fill="rgb(52,9,38)" stroke="rgb(52,9,38)" />
<polygon points="2291,1297 2288,1501 2000,1613 2000,1424" fill="rgb(39,6,21)" stroke="rgb(39,6,21)" />
<polygon points="2538,1462 2499,1712 2273,1727 2288,1501" fill="rgb(0,0,0)" stroke="rgb(0,0,0)" />
<polygon points="2703,1709 2576,2001 2387,2000 2499,1712" fill="rgb(39,67,134)" stroke="rgb(39,67,134)" />
<polygon points="2703,2291 2499,2288 2387,2000 2576,2001" fill="rgb(63,22,84)" stroke="rgb(63,22,84)" />
<polygon points="2538,2538 2288,2499 2273,2273 2499,2288" fill="rgb(18,3,5)" stroke="rgb(18,3,5)" />
<polygon points="2291,2703 2000,2576 2000,2387 2288,2499" fill="rgb(26,88,136)" stroke="rgb(26,88,136)" />
<polygon points="1709,2703 1712,2499 2000,2387 2000,2576" fill="rgb(57,38,112)" stroke="rgb(57,38,112)" />
<polygon points="1462,2538 1501,2288 1727,2273 1712,2499" fill="rgb(40,6,22)" stroke="rgb(40,6,22)" />
<polygon points="1297,2291 1424,1999 1613,2000 1501,2288" fill="rgb(58,12,51)" stroke="rgb(58,12,51)" />
<polygon points="1297,1709 1501,1712 1613,2000 1424,1999" fill="rgb(56,10,46)" stroke="rgb(56,10,46)" />
<polygon points="1462,1462 1712,1501 1727,1727 1501,1712" fill="rgb(26,4,10)" stroke="rgb(26,4,10)" />
<polygon points="1709,1297 2000,1424 2000,1613 1712,1501" fill="rgb(63,20,78)" stroke="rgb(63,20,78)" />
<polygon points="2290,1106 2291,1297 2000,1424 2000,1239" fill="rgb(54,10,43)" stroke="rgb(54,10,43)" />
<polygon points="2552,1240 2538,1462 2288,1501 2291,1297" fill="rgb(51,9,36)" stroke="rgb(51,9,36)" />
<polygon points="2760,1448 2703,1709 2499,1712 2538,1462" fill="rgb(59,35,107)" stroke="rgb(59,35,107)" />
<polygon points="2894,1710 2761,2001 2576,2001 2703,1709" fill="rgb(62,28,97)" stroke="rgb(62,28,97)" />
<polygon points="2894,2290 2703,2291 2576,2001 2761,2001" fill="rgb(23,4,8)" stroke="rgb(23,4,8)" />
<polygon points="2760,2552 2538,2538 2499,2288 2703,2291" fill="rgb(63,24,88)" stroke="rgb(63,24,88)" />
<polygon points="2552,2760 2291,2703 2288,2499 2538,2538" fill="rgb(29,82,137)" stroke="rgb(29,82,137)" />
<polygon points="2290,2894 2000,2761 2000,2576 2291,2703" fill="rgb(52,9,39)" stroke="rgb(52,9,39)" />
<polygon points="1710,2894 1709,2703 2000,2576 2000,2761" fill="rgb(55,10,44)" stroke="rgb(55,10,44)" />
<polygon points="1448,2760 1462,2538 1712,2499 1709,2703" fill="rgb(61,14,62)" stroke="rgb(61,14,62)" />
<polygon points="1240,2552 1297,2291 1501,2288 1462,2538" fill="rgb(61,15,65)" stroke="rgb(61,15,65)" />
<polygon points="1106,2290 1239,1999 1424,1999 1297,2291" fill="rgb(50,49,124)" stroke="rgb(50,49,124)" />
<polygon points="1106,1710 1297,1709 1424,1999 1239,1999" fill="rgb(27,4,11)" stroke="rgb(27,4,11)" />
<polygon points="1240,1448 1462,1462 1501,1712 1297,1709" fill="rgb(57,38,112)" stroke="rgb(57,38,112)" />
<polygon points="1448,1240 1709,1297 1712,1501 1462,1462" fill="rgb(60,14,60)" stroke="rgb(60,14,60)" />
<polygon points="1710,1106 2000,1239 2000,1424 1709,1297" fill="rgb(61,15,64)" stroke="rgb(61,15,64)" />
<polygon points="2287,927 2290,1106 2000,1239 2000,1060" fill="rgb(26,4,10)" stroke="rgb(26,4,10)" />
<polygon points="2555,1038 2552,1240 2291,1297 2290,1106" fill="rgb(47,8,31)" stroke="rgb(47,8,31)" />
<polygon points="2785,1215 2760,1448 2538,1462 2552,1240" fill="rgb(51,48,123)" stroke="rgb(51,48,123)" />
<polygon points="2962,1445 2894,1710 2703,1709 2760,1448" fill="rgb(42,62,132)" stroke="rgb(42,62,132)" />
<polygon points="3073,1713 2940,2001 2761,2001 2894,1710" fill="rgb(63,20,80)" stroke="rgb(63,20,80)" />
<polygon points="3073,2287 2894,2290 2761,2001 2940,2001" fill="rgb(63,20,79)" stroke="rgb(63,20,79)" />
<polygon points="2962,2555 2760,2552 2703,2291 2894,2290" fill="rgb(3,1,0)" stroke="rgb(3,1,0)" />
<polygon points="2785,2785 2552,2760 2538,2538 2760,2552" fill="rgb(44,59,130)" stroke="rgb(44,59,130)" />
<polygon points="2555,2962 2290,2894 2291,2703 2552,2760" fill="rgb(59,12,54)" stroke="rgb(59,12,54)" />
<polygon points="2287,3073 2000,2940 2000,2761 2290,2894" fill="rgb(48,8,32)" stroke="rgb(48,8,32)" />
<polygon points="1713,3073 1710,2894 2000,2761 2000,2940" fill="rgb(35,74,136)" stroke="rgb(35,74,136)" />
<polygon points="1445,2962 1448,2760 1709,2703 1710,2894" fill="rgb(61,30,101)" stroke="rgb(61,30,101)" />
<polygon points="1215,2785 1240,2552 1462,2538 1448,2760" fill="rgb(61,14,61)" stroke="rgb(61,14,61)" />
<polygon points="1038,2555 1106,2290 1297,2291 1240,2552" fill="rgb(53,46,120)" stroke="rgb(53,46,120)" />
<polygon points="927,2287 1060,1999 1239,1999 1106,2290" fill="rgb(27,4,10)" stroke="rgb(27,4,10)" />
<polygon points="927,1713 1106,1710 1239,1999 1060,1999" fill="rgb(62,16,68)" stroke="rgb(62,16,68)" />
<polygon points="1038,1445 1240,1448 1297,1709 1106,1710" fill="rgb(48,8,31)" stroke="rgb(48,8,31)" />
<polygon points="1215,1215 1448,1240 1462,1462 1240,1448" fill="rgb(45,7,28)" stroke="rgb(45,7,28)" />
<polygon points="1445,1038 1710,1106 1709,1297 1448,1240" fill="rgb(39,6,20)" stroke="rgb(39,6,20)" />
<polygon points="1713,927 2000,1060 2000,1239 1710,1106" fill="rgb(39,6,21)" stroke="rgb(39,6,21)" />
<polygon points="2283,761 2287,927 2000,1060 2000,890" fill="rgb(59,13,56)" stroke="rgb(59,13,56)" />
<polygon points="2551,855 2555,1038 2290,1106 2287,927" fill="rgb(45,7,27)" stroke="rgb(45,7,27)" />
<polygon points="2792,1006 2785,1215 2552,1240 2555,1038" fill="rgb(240,180,247)" stroke="rgb(240,180,247)" />
<polygon points="2994,1208 2962,1445 2760,1448 2785,1215" fill="rgb(61,14,62)" stroke="rgb(61,14,62)" />
<polygon points="3145,1449 3073,1713 2894,1710 2962,1445" fill="rgb(17,108,129)" stroke="rgb(17,108,129)" />
<polygon points="3239,1718 3110,2001 2940,2001 3073,1713" fill="rgb(57,11,49)" stroke="rgb(57,11,49)" />
<polygon points="3239,2282 3073,2287 2940,2001 3110,2001" fill="rgb(31,5,13)" stroke="rgb(31,5,13)" />
<polygon points="3145,2551 2962,2555 2894,2290 3073,2287" fill="rgb(42,7,24)" stroke="rgb(42,7,24)" />
<polygon points="2994,2792 2785,2785 2760,2552 2962,2555" fill="rgb(56,11,47)" stroke="rgb(56,11,47)" />
<polygon points="2792,2994 2555,2962 2552,2760 2785,2785" fill="rgb(52,9,38)" stroke="rgb(52,9,38)" />
<polygon points="2551,3145 2287,3073 2290,2894 2555,2962" fill="rgb(62,17,70)" stroke="rgb(62,17,70)" />
<polygon points="2283,3239 2000,3110 2000,2940 2287,3073" fill="rgb(55,10,44)" stroke="rgb(55,10,44)" />
<polygon points="1717,3239 1713,3073 2000,2940 2000,3110" fill="rgb(43,7,25)" stroke="rgb(43,7,25)" />
<polygon points="1449,3145 1445,2962 1710,2894 1713,3073" fill="rgb(57,11,49)" stroke="rgb(57,11,49)" />
<polygon points="1208,2994 1215,2785 1448,2760 1445,2962" fill="rgb(61,31,101)" stroke="rgb(61,31,101)" />
<polygon points="1006,2792 1038,2555 1240,2552 1215,2785" fill="rgb(58,36,109)" stroke="rgb(58,36,109)" />
<polygon points="855,2551 927,2287 1106,2290 1038,2555" fill="rgb(49,8,34)" stroke="rgb(49,8,34)" />
<polygon points="761,2283 890,1999 1060,1999 927,2287" fill="rgb(50,8,34)" stroke="rgb(50,8,34)" />
<polygon points="761,1718 927,1713 1060,1999 890,1999" fill="rgb(63,22,85)" stroke="rgb(63,22,85)" />
<polygon points="855,1449 1038,1445 1106,1710 927,1713" fill="rgb(49,8,34)" stroke="rgb(49,8,34)" />
<polygon points="1006,1208 1215,1215 1240,1448 1038,1445" fill="rgb(26,4,10)" stroke="rgb(26,4,10)" />
<polygon points="1208,1006 1445,1038 1448,1240 1215,1215" fill="rgb(54,10,42)" stroke="rgb(54,10,42)" />
<polygon points="1449,855 1713,927 1710,1106 1445,1038" fill="rgb(20,3,6)" stroke="rgb(20,3,6)" />
<polygon points="1717,761 2000,890 2000,1060 1713,927" fill="rgb(63,18,74)" stroke="rgb(63,18,74)" />
<polygon points="2277,608 2283,761 2000,890 2000,729" fill="rgb(58,36,109)" stroke="rgb(58,36,109)" />
<polygon points="2543,688 2551,855 2287,927 2283,761" fill="rgb(20,4,6)" stroke="rgb(20,4,6)" />
<polygon points="2789,820 2792,1006 2555,1038 2551,855" fill="rgb(63,21,82)" stroke="rgb(63,21,82)" />
<polygon points="3004,996 2994,1208 2785,1215 2792,1006" fill="rgb(61,31,101)" stroke="rgb(61,31,101)" />
<polygon points="3180,1211 3145,1449 2962,1445 2994,1208" fill="rgb(6,1,1)" stroke="rgb(6,1,1)" />
<polygon points="3312,1457 3239,1718 3073,1713 3145,1449" fill="rgb(63,21,81)" stroke="rgb(63,21,81)" />
<polygon points="3392,1723 3271,2001 3110,2001 3239,1718" fill="rgb(50,50,125)" stroke="rgb(50,50,125)" />
<polygon points="3392,2277 3239,2282 3110,2001 3271,2001" fill="rgb(253,150,185)" stroke="rgb(253,150,185)" />
<polygon points="3312,2543 3145,2551 3073,2287 3239,2282" fill="rgb(34,5,16)" stroke="rgb(34,5,16)" />
<polygon points="3180,2789 2994,2792 2962,2555 3145,2551" fill="rgb(44,7,26)" stroke="rgb(44,7,26)" />
<polygon points="3004,3004 2792,2994 2785,2785 2994,2792" fill="rgb(41,6,23)" stroke="rgb(41,6,23)" />
<polygon points="2789,3180 2551,3145 2555,2962 2792,2994" fill="rgb(63,24,88)" stroke="rgb(63,24,88)" />
<polygon points="2543,3312 2283,3239 2287,3073 2551,3145" fill="rgb(61,14,61)" stroke="rgb(61,14,61)" />
<polygon points="2277,3392 2000,3271 2000,3110 2283,3239" fill="rgb(59,35,108)" stroke="rgb(59,35,108)" />
<polygon points="1723,3392 1717,3239 2000,3110 2000,3271" fill="rgb(55,41,116)" stroke="rgb(55,41,116)" />
<polygon points="1457,3312 1449,3145 1713,3073 1717,3239" fill="rgb(59,13,56)" stroke="rgb(59,13,56)" />
<polygon points="1211,3180 1208,2994 1445,2962 1449,3145" fill="rgb(59,34,106)" stroke="rgb(59,34,106)" />
<polygon points="996,3004 1006,2792 1215,2785 1208,2994" fill="rgb(63,20,80)" stroke="rgb(63,20,80)" />
<polygon points="820,2789 855,2551 1038,2555 1006,2792" fill="rgb(38,6,19)" stroke="rgb(38,6,19)" />
<polygon points="688,2543 761,2283 927,2287 855,2551" fill="rgb(63,18,73)" stroke="rgb(63,18,73)" />
<polygon points="608,2277 729,1999 890,1999 761,2283" fill="rgb(20,4,6)" stroke="rgb(20,4,6)" />
<polygon points="608,1723 761,1718 890,1999 729,1999" fill="rgb(53,45,120)" stroke="rgb(53,45,120)" />
<polygon points="688,1457 855,1449 927,1713 761,1718" fill="rgb(63,18,72)" stroke="rgb(63,18,72)" />
<polygon points="820,1211 1006,1208 1038,1445 855,1449" fill="rgb(47,54,128)" stroke="rgb(47,54,128)" />
<polygon points="996,996 1208,1006 1215,1215 1006,1208" fill="rgb(40,6,22)" stroke="rgb(40,6,22)" />
<polygon points="1211,820 1449,855 1445,1038 1208,1006" fill="rgb(15,120,121)" stroke="rgb(15,120,121)" />
<polygon points="1457,688 1717,761 1713,927 1449,855" fill="rgb(60,13,58)" stroke="rgb(60,13,58)" />
<polygon points="1723,608 2000,729 2000,890 1717,761" fill="rgb(21,98,134)" stroke="rgb(21,98,134)" />
<polygon points="2152,460 2277,608 2000,729 2000,580" fill="rgb(48,54,127)" stroke="rgb(48,54,127)" />
<polygon points="2449,520 2543,688 2283,761 2277,608" fill="rgb(62,17,69)" stroke="rgb(62,17,69)" />
<polygon points="2729,636 2789,820 2551,855 2543,688" fill="rgb(61,31,101)" stroke="rgb(61,31,101)" />
<polygon points="2981,804 3004,996 2792,1006 2789,820" fill="rgb(31,80,136)" stroke="rgb(31,80,136)" />
<polygon points="3196,1019 3180,1211 2994,1208 3004,996" fill="rgb(57,11,49)" stroke="rgb(57,11,49)" />
<polygon points="3364,1271 3312,1457 3145,1449 3180,1211" fill="rgb(56,39,114)" stroke="rgb(56,39,114)" />
<polygon points="3480,1551 3392,1723 3239,1718 3312,1457" fill="rgb(62,17,70)" stroke="rgb(62,17,70)" />
<polygon points="3540,1849 3420,2001 3271,2001 3392,1723" fill="rgb(44,7,26)" stroke="rgb(44,7,26)" />
<polygon points="3540,2151 3392,2277 3271,2001 3420,2001" fill="rgb(21,4,7)" stroke="rgb(21,4,7)" />
<polygon points="3480,2449 3312,2543 3239,2282 3392,2277" fill="rgb(48,8,32)" stroke="rgb(48,8,32)" />
<polygon points="3364,2729 3180,2789 3145,2551 3312,2543" fill="rgb(16,3,5)" stroke="rgb(16,3,5)" />
<polygon points="3196,2981 3004,3004 2994,2792 3180,2789" fill="rgb(63,19,75)" stroke="rgb(63,19,75)" />
<polygon points="2981,3196 2789,3180 2792,2994 3004,3004" fill="rgb(61,29,99)" stroke="rgb(61,29,99)" />
<polygon points="2729,3364 2543,3312 2551,3145 2789,3180" fill="rgb(17,3,5)" stroke="rgb(17,3,5)" />
<polygon points="2449,3480 2277,3392 2283,3239 2543,3312" fill="rgb(60,14,60)" stroke="rgb(60,14,60)" />
<polygon points="2152,3540 2000,3420 2000,3271 2277,3392" fill="rgb(52,9,39)" stroke="rgb(52,9,39)" />
<polygon points="1848,3540 1723,3392 2000,3271 2000,3420" fill="rgb(48,8,32)" stroke="rgb(48,8,32)" />
<polygon points="1551,3480 1457,3312 1717,3239 1723,3392" fill="rgb(26,4,10)" stroke="rgb(26,4,10)" />
<polygon points="1271,3364 1211,3180 1449,3145 1457,3312" fill="rgb(47,55,128)" stroke="rgb(47,55,128)" />
<polygon points="1019,3196 996,3004 1208,2994 1211,3180" fill="rgb(22,97,134)" stroke="rgb(22,97,134)" />
<polygon points="804,2981 820,2789 1006,2792 996,3004" fill="rgb(57,11,49)" stroke="rgb(57,11,49)" />
<polygon points="636,2729 688,2543 855,2551 820,2789" fill="rgb(59,160,57)" stroke="rgb(59,160,57)" />
<polygon points="520,2449 608,2277 761,2283 688,2543" fill="rgb(58,35,109)" stroke="rgb(58,35,109)" />
<polygon points="460,2151 580,1999 729,1999 608,2277" fill="rgb(14,128,114)" stroke="rgb(14,128,114)" />
<polygon points="460,1849 608,1723 729,1999 580,1999" fill="rgb(52,47,122)" stroke="rgb(52,47,122)" />
<polygon points="520,1551 688,1457 761,1718 608,1723" fill="rgb(56,11,46)" stroke="rgb(56,11,46)" />
<polygon points="636,1271 820,1211 855,1449 688,1457" fill="rgb(61,15,65)" stroke="rgb(61,15,65)" />
<polygon points="804,1019 996,996 1006,1208 820,1211" fill="rgb(27,4,10)" stroke="rgb(27,4,10)" />
<polygon points="1019,804 1211,820 1208,1006 996,996" fill="rgb(30,81,136)" stroke="rgb(30,81,136)" />
<polygon points="1271,636 1457,688 1449,855 1211,820" fill="rgb(55,10,44)" stroke="rgb(55,10,44)" />
<polygon points="1551,520 1723,608 1717,761 1457,688" fill="rgb(54,10,43)" stroke="rgb(54,10,43)" />
<polygon points="1848,460 2000,580 2000,729 1723,608" fill="rgb(60,31,102)" stroke="rgb(60,31,102)" />
<polygon points="2000,350 2152,460 2000,580 1848,460" fill="rgb(11,2,2)" stroke="rgb(11,2,2)" />
<polygon points="2322,382 2449,520 2277,608 2152,460" fill="rgb(44,7,26)" stroke="rgb(44,7,26)" />
<polygon points="2631,476 2729,636 2543,688 2449,520" fill="rgb(25,4,9)" stroke="rgb(25,4,9)" />
<polygon points="2916,628 2981,804 2789,820 2729,636" fill="rgb(21,144,93)" stroke="rgb(21,144,93)" />
<polygon points="3166,834 3196,1019 3004,996 2981,804" fill="rgb(52,9,39)" stroke="rgb(52,9,39)" />
<polygon points="3372,1084 3364,1271 3180,1211 3196,1019" fill="rgb(27,4,10)" stroke="rgb(27,4,10)" />
<polygon points="3524,1369 3480,1551 3312,1457 3364,1271" fill="rgb(61,15,65)" stroke="rgb(61,15,65)" />
<polygon points="3618,1679 3540,1849 3392,1723 3480,1551" fill="rgb(32,78,136)" stroke="rgb(32,78,136)" />
<polygon points="3649,2001 3540,2151 3420,2001 3540,1849" fill="rgb(14,3,4)" stroke="rgb(14,3,4)" />
<polygon points="3618,2321 3480,2449 3392,2277 3540,2151" fill="rgb(63,18,73)" stroke="rgb(63,18,73)" />
<polygon points="3524,2631 3364,2729 3312,2543 3480,2449" fill="rgb(61,15,65)" stroke="rgb(61,15,65)" />
<polygon points="3372,2916 3196,2981 3180,2789 3364,2729" fill="rgb(43,61,131)" stroke="rgb(43,61,131)" />
<polygon points="3166,3166 2981,3196 3004,3004 3196,2981" fill="rgb(44,59,131)" stroke="rgb(44,59,131)" />
<polygon points="2916,3372 2729,3364 2789,3180 2981,3196" fill="rgb(54,44,119)" stroke="rgb(54,44,119)" />
<polygon points="2631,3524 2449,3480 2543,3312 2729,3364" fill="rgb(46,7,28)" stroke="rgb(46,7,28)" />
<polygon points="2322,3618 2152,3540 2277,3392 2449,3480" fill="rgb(36,6,18)" stroke="rgb(36,6,18)" />
<polygon points="2000,3650 1848,3540 2000,3420 2152,3540" fill="rgb(63,23,85)" stroke="rgb(63,23,85)" />
<polygon points="1678,3618 1551,3480 1723,3392 1848,3540" fill="rgb(59,34,107)" stroke="rgb(59,34,107)" />
<polygon points="1369,3524 1271,3364 1457,3312 1551,3480" fill="rgb(54,10,41)" stroke="rgb(54,10,41)" />
<polygon points="1084,3372 1019,3196 1211,3180 1271,3364" fill="rgb(18,106,130)" stroke="rgb(18,106,130)" />
<polygon points="834,3166 804,2981 996,3004 1019,3196" fill="rgb(46,55,128)" stroke="rgb(46,55,128)" />
<polygon points="628,2916 636,2729 820,2789 804,2981" fill="rgb(29,82,137)" stroke="rgb(29,82,137)" />
<polygon points="476,2631 520,2449 688,2543 636,2729" fill="rgb(8,2,1)" stroke="rgb(8,2,1)" />
<polygon points="382,2321 460,2151 608,2277 520,2449" fill="rgb(57,11,50)" stroke="rgb(57,11,50)" />
<polygon points="351,1999 460,1849 580,1999 460,2151" fill="rgb(44,7,26)" stroke="rgb(44,7,26)" />
<polygon points="382,1679 520,1551 608,1723 460,1849" fill="rgb(59,13,56)" stroke="rgb(59,13,56)" />
<polygon points="476,1369 636,1271 688,1457 520,1551" fill="rgb(60,13,58)" stroke="rgb(60,13,58)" />
<polygon points="628,1084 804,1019 820,1211 636,1271" fill="rgb(55,10,44)" stroke="rgb(55,10,44)" />
<polygon points="834,834 1019,804 996,996 804,1019" fill="rgb(57,12,50)" stroke="rgb(57,12,50)" />
<polygon points="1084,628 1271,636 1211,820 1019,804" fill="rgb(36,6,18)" stroke="rgb(36,6,18)" />
<polygon points="1369,476 1551,520 1457,688 1271,636" fill="rgb(43,7,25)" stroke="rgb(43,7,25)" />
<polygon points="1678,382 1848,460 1723,608 1551,520" fill="rgb(50,8,35)" stroke="rgb(50,8,35)" />
<polygon points="2170,277 2322,382 2152,460 2000,350" fill="rgb(19,105,131)" stroke="rgb(19,105,131)" />
<polygon points="2503,343 2631,476 2449,520 2322,382" fill="rgb(63,20,79)" stroke="rgb(63,20,79)" />
<polygon points="2816,473 2916,628 2729,636 2631,476" fill="rgb(63,22,85)" stroke="rgb(63,22,85)" />
<polygon points="3098,662 3166,834 2981,804 2916,628" fill="rgb(48,8,32)" stroke="rgb(48,8,32)" />
<polygon points="3338,902 3372,1084 3196,1019 3166,834" fill="rgb(44,7,26)" stroke="rgb(44,7,26)" />
<polygon points="3527,1184 3524,1369 3364,1271 3372,1084" fill="rgb(57,38,112)" stroke="rgb(57,38,112)" />
<polygon points="3657,1498 3618,1679 3480,1551 3524,1369" fill="rgb(27,150,83)" stroke="rgb(27,150,83)" />
<polygon points="3723,1831 3649,2001 3540,1849 3618,1679" fill="rgb(49,8,33)" stroke="rgb(49,8,33)" />
<polygon points="3723,2169 3618,2321 3540,2151 3649,2001" fill="rgb(55,10,44)" stroke="rgb(55,10,44)" />
<polygon points="3657,2502 3524,2631 3480,2449 3618,2321" fill="rgb(51,9,36)" stroke="rgb(51,9,36)" />
<polygon points="3527,2816 3372,2916 3364,2729 3524,2631" fill="rgb(26,89,136)" stroke="rgb(26,89,136)" />
<polygon points="3338,3098 3166,3166 3196,2981 3372,2916" fill="rgb(51,47,122)" stroke="rgb(51,47,122)" />
<polygon points="3098,3338 2916,3372 2981,3196 3166,3166" fill="rgb(50,49,124)" stroke="rgb(50,49,124)" />
<polygon points="2816,3527 2631,3524 2729,3364 2916,3372" fill="rgb(58,12,51)" stroke="rgb(58,12,51)" />
<polygon points="2503,3657 2322,3618 2449,3480 2631,3524" fill="rgb(33,5,15)" stroke="rgb(33,5,15)" />
<polygon points="2170,3723 2000,3650 2152,3540 2322,3618" fill="rgb(46,55,128)" stroke="rgb(46,55,128)" />
<polygon points="1830,3723 1678,3618 1848,3540 2000,3650" fill="rgb(42,7,24)" stroke="rgb(42,7,24)" />
<polygon points="1497,3657 1369,3524 1551,3480 1678,3618" fill="rgb(62,26,92)" stroke="rgb(62,26,92)" />
<polygon points="1184,3527 1084,3372 1271,3364 1369,3524" fill="rgb(63,20,78)" stroke="rgb(63,20,78)" />
<polygon points="902,3338 834,3166 1019,3196 1084,3372" fill="rgb(38,6,20)" stroke="rgb(38,6,20)" />
<polygon points="662,3098 628,2916 804,2981 834,3166" fill="rgb(47,8,30)" stroke="rgb(47,8,30)" />
<polygon points="473,2816 476,2631 636,2729 628,2916" fill="rgb(61,15,64)" stroke="rgb(61,15,64)" />
<polygon points="343,2502 382,2321 520,2449 476,2631" fill="rgb(62,25,91)" stroke="rgb(62,25,91)" />
<polygon points="277,2169 351,1999 460,2151 382,2321" fill="rgb(57,11,50)" stroke="rgb(57,11,50)" />
<polygon points="277,1831 382,1679 460,1849 351,1999" fill="rgb(63,20,79)" stroke="rgb(63,20,79)" />
<polygon points="343,1498 476,1369 520,1551 382,1679" fill="rgb(63,24,88)" stroke="rgb(63,24,88)" />
<polygon points="473,1184 628,1084 636,1271 476,1369" fill="rgb(43,7,25)" stroke="rgb(43,7,25)" />
<polygon points="662,902 834,834 804,1019 628,1084" fill="rgb(40,6,22)" stroke="rgb(40,6,22)" />
<polygon points="902,662 1084,628 1019,804 834,834" fill="rgb(42,7,24)" stroke="rgb(42,7,24)" />
<polygon points="1184,473 1369,476 1271,636 1084,628" fill="rgb(52,9,38)" stroke="rgb(52,9,38)" />
<polygon points="1497,343 1678,382 1551,520 1369,476" fill="rgb(61,14,61)" stroke="rgb(61,14,61)" />
<polygon points="1830,277 2000,350 1848,460 1678,382" fill="rgb(17,3,5)" stroke="rgb(17,3,5)" />
<polygon points="2000,204 2170,277 2000,350 1830,277" fill="rgb(26,88,136)" stroke="rgb(26,88,136)" />
<polygon points="2350,239 2503,343 2322,382 2170,277" fill="rgb(27,87,136)" stroke="rgb(27,87,136)" />
<polygon points="2687,341 2816,473 2631,476 2503,343" fill="rgb(62,17,71)" stroke="rgb(62,17,71)" />
<polygon points="2998,507 3098,662 2916,628 2816,473" fill="rgb(21,100,133)" stroke="rgb(21,100,133)" />
<polygon points="3270,730 3338,902 3166,834 3098,662" fill="rgb(37,70,135)" stroke="rgb(37,70,135)" />
<polygon points="3493,1002 3527,1184 3372,1084 3338,902" fill="rgb(62,16,66)" stroke="rgb(62,16,66)" />
<polygon points="3659,1313 3657,1498 3524,1369 3527,1184" fill="rgb(51,49,123)" stroke="rgb(51,49,123)" />
<polygon points="3761,1650 3723,1831 3618,1679 3657,1498" fill="rgb(63,20,80)" stroke="rgb(63,20,80)" />
<polygon points="3796,2002 3723,2169 3649,2001 3723,1831" fill="rgb(3,1,0)" stroke="rgb(3,1,0)" />
<polygon points="3761,2350 3657,2502 3618,2321 3723,2169" fill="rgb(56,40,115)" stroke="rgb(56,40,115)" />
<polygon points="3659,2687 3527,2816 3524,2631 3657,2502" fill="rgb(43,61,131)" stroke="rgb(43,61,131)" />
<polygon points="3493,2998 3338,3098 3372,2916 3527,2816" fill="rgb(63,22,85)" stroke="rgb(63,22,85)" />
<polygon points="3270,3270 3098,3338 3166,3166 3338,3098" fill="rgb(52,9,39)" stroke="rgb(52,9,39)" />
<polygon points="2998,3493 2816,3527 2916,3372 3098,3338" fill="rgb(58,12,52)" stroke="rgb(58,12,52)" />
<polygon points="2687,3659 2503,3657 2631,3524 2816,3527" fill="rgb(49,8,34)" stroke="rgb(49,8,34)" />
<polygon points="2350,3761 2170,3723 2322,3618 2503,3657" fill="rgb(59,35,108)" stroke="rgb(59,35,108)" />
<polygon points="2000,3796 1830,3723 2000,3650 2170,3723" fill="rgb(15,120,121)" stroke="rgb(15,120,121)" />
<polygon points="1650,3761 1497,3657 1678,3618 1830,3723" fill="rgb(61,30,101)" stroke="rgb(61,30,101)" />
<polygon points="1313,3659 1184,3527 1369,3524 1497,3657" fill="rgb(14,128,114)" stroke="rgb(14,128,114)" />
<polygon points="1002,3493 902,3338 1084,3372 1184,3527" fill="rgb(40,6,22)" stroke="rgb(40,6,22)" />
<polygon points="730,3270 662,3098 834,3166 902,3338" fill="rgb(63,22,84)" stroke="rgb(63,22,84)" />
<polygon points="507,2998 473,2816 628,2916 662,3098" fill="rgb(36,6,17)" stroke="rgb(36,6,17)" />
<polygon points="341,2687 343,2502 476,2631 473,2816" fill="rgb(63,20,79)" stroke="rgb(63,20,79)" />
<polygon points="239,2350 277,2169 382,2321 343,2502" fill="rgb(28,150,83)" stroke="rgb(28,150,83)" />
<polygon points="204,1998 277,1831 351,1999 277,2169" fill="rgb(61,29,99)" stroke="rgb(61,29,99)" />
<polygon points="239,1650 343,1498 382,1679 277,1831" fill="rgb(15,3,4)" stroke="rgb(15,3,4)" />
<polygon points="341,1313 473,1184 476,1369 343,1498" fill="rgb(56,11,47)" stroke="rgb(56,11,47)" />
<polygon points="507,1002 662,902 628,1084 473,1184" fill="rgb(56,11,46)" stroke="rgb(56,11,46)" />
<polygon points="730,730 902,662 834,834 662,902" fill="rgb(51,49,123)" stroke="rgb(51,49,123)" />
<polygon points="1002,507 1184,473 1084,628 902,662" fill="rgb(63,23,86)" stroke="rgb(63,23,86)" />
<polygon points="1313,341 1497,343 1369,476 1184,473" fill="rgb(59,13,56)" stroke="rgb(59,13,56)" />
<polygon points="1650,239 1830,277 1678,382 1497,343" fill="rgb(41,6,23)" stroke="rgb(41,6,23)" />
<polygon points="2181,165 2350,239 2170,277 2000,204" fill="rgb(28,5,11)" stroke="rgb(28,5,11)" />
<polygon points="2535,235 2687,341 2503,343 2350,239" fill="rgb(60,33,105)" stroke="rgb(60,33,105)" />
<polygon points="2869,373 2998,507 2816,473 2687,341" fill="rgb(30,5,13)" stroke="rgb(30,5,13)" />
<polygon points="3170,574 3270,730 3098,662 2998,507" fill="rgb(31,5,13)" stroke="rgb(31,5,13)" />
<polygon points="3426,830 3493,1002 3338,902 3270,730" fill="rgb(63,22,85)" stroke="rgb(63,22,85)" />
<polygon points="3626,1131 3659,1313 3527,1184 3493,1002" fill="rgb(44,7,27)" stroke="rgb(44,7,27)" />
<polygon points="3765,1465 3761,1650 3657,1498 3659,1313" fill="rgb(56,11,48)" stroke="rgb(56,11,48)" />
<polygon points="3835,1820 3796,2002 3723,1831 3761,1650" fill="rgb(60,31,102)" stroke="rgb(60,31,102)" />
<polygon points="3835,2180 3761,2350 3723,2169 3796,2002" fill="rgb(47,8,30)" stroke="rgb(47,8,30)" />
<polygon points="3765,2535 3659,2687 3657,2502 3761,2350" fill="rgb(35,5,16)" stroke="rgb(35,5,16)" />
<polygon points="3626,2869 3493,2998 3527,2816 3659,2687" fill="rgb(50,9,36)" stroke="rgb(50,9,36)" />
<polygon points="3426,3170 3270,3270 3338,3098 3493,2998" fill="rgb(7,1,1)" stroke="rgb(7,1,1)" />
<polygon points="3170,3426 2998,3493 3098,3338 3270,3270" fill="rgb(59,33,106)" stroke="rgb(59,33,106)" />
<polygon points="2869,3627 2687,3659 2816,3527 2998,3493" fill="rgb(10,2,2)" stroke="rgb(10,2,2)" />
<polygon points="2535,3765 2350,3761 2503,3657 2687,3659" fill="rgb(51,48,122)" stroke="rgb(51,48,122)" />
<polygon points="2181,3835 2000,3796 2170,3723 2350,3761" fill="rgb(38,6,19)" stroke="rgb(38,6,19)" />
<polygon points="1819,3835 1650,3761 1830,3723 2000,3796" fill="rgb(61,15,65)" stroke="rgb(61,15,65)" />
<polygon points="1465,3765 1313,3659 1497,3657 1650,3761" fill="rgb(25,91,136)" stroke="rgb(25,91,136)" />
<polygon points="1131,3627 1002,3493 1184,3527 1313,3659" fill="rgb(48,8,32)" stroke="rgb(48,8,32)" />
<polygon points="830,3426 730,3270 902,3338 1002,3493" fill="rgb(47,8,30)" stroke="rgb(47,8,30)" />
<polygon points="574,3170 507,2998 662,3098 730,3270" fill="rgb(62,25,91)" stroke="rgb(62,25,91)" />
<polygon points="374,2869 341,2687 473,2816 507,2998" fill="rgb(42,7,24)" stroke="rgb(42,7,24)" />
<polygon points="235,2535 239,2350 343,2502 341,2687" fill="rgb(63,19,77)" stroke="rgb(63,19,77)" />
<polygon points="165,2180 204,1998 277,2169 239,2350" fill="rgb(33,5,15)" stroke="rgb(33,5,15)" />
<polygon points="165,1820 239,1650 277,1831 204,1998" fill="rgb(63,23,87)" stroke="rgb(63,23,87)" />
<polygon points="235,1465 341,1313 343,1498 239,1650" fill="rgb(57,11,48)" stroke="rgb(57,11,48)" />
<polygon points="374,1131 507,1002 473,1184 341,1313" fill="rgb(47,8,30)" stroke="rgb(47,8,30)" />
<polygon points="574,830 730,730 662,902 507,1002" fill="rgb(41,64,133)" stroke="rgb(41,64,133)" />
<polygon points="830,574 1002,507 902,662 730,730" fill="rgb(17,3,5)" stroke="rgb(17,3,5)" />
<polygon points="1131,373 1313,341 1184,473 1002,507" fill="rgb(50,9,36)" stroke="rgb(50,9,36)" />
<polygon points="1465,235 1650,239 1497,343 1313,341" fill="rgb(15,116,124)" stroke="rgb(15,116,124)" />
<polygon points="1819,165 2000,204 1830,277 1650,239" fill="rgb(31,5,13)" stroke="rgb(31,5,13)" />
<polygon points="2000,122 2181,165 2000,204 1819,165" fill="rgb(52,9,39)" stroke="rgb(52,9,39)" />
<polygon points="2366,158 2535,235 2350,239 2181,165" fill="rgb(31,5,13)" stroke="rgb(31,5,13)" />
<polygon points="2719,265 2869,373 2687,341 2535,235" fill="rgb(62,17,71)" stroke="rgb(62,17,71)" />
<polygon points="3043,438 3170,574 2998,507 2869,373" fill="rgb(42,62,132)" stroke="rgb(42,62,132)" />
<polygon points="3328,672 3426,830 3270,730 3170,574" fill="rgb(63,23,85)" stroke="rgb(63,23,85)" />
<polygon points="3562,957 3626,1131 3493,1002 3426,830" fill="rgb(44,58,130)" stroke="rgb(44,58,130)" />
<polygon points="3735,1281 3765,1465 3659,1313 3626,1131" fill="rgb(57,38,112)" stroke="rgb(57,38,112)" />
<polygon points="3842,1634 3835,1820 3761,1650 3765,1465" fill="rgb(45,7,27)" stroke="rgb(45,7,27)" />
<polygon points="3878,2002 3835,2180 3796,2002 3835,1820" fill="rgb(18,3,5)" stroke="rgb(18,3,5)" />
<polygon points="3842,2366 3765,2535 3761,2350 3835,2180" fill="rgb(63,23,85)" stroke="rgb(63,23,85)" />
<polygon points="3735,2719 3626,2869 3659,2687 3765,2535" fill="rgb(63,21,82)" stroke="rgb(63,21,82)" />
<polygon points="3562,3043 3426,3170 3493,2998 3626,2869" fill="rgb(50,8,35)" stroke="rgb(50,8,35)" />
<polygon points="3328,3328 3170,3426 3270,3270 3426,3170" fill="rgb(34,5,16)" stroke="rgb(34,5,16)" />
<polygon points="3043,3562 2869,3627 2998,3493 3170,3426" fill="rgb(45,7,27)" stroke="rgb(45,7,27)" />
<polygon points="2719,3735 2535,3765 2687,3659 2869,3627" fill="rgb(63,25,90)" stroke="rgb(63,25,90)" />
<polygon points="2366,3842 2181,3835 2350,3761 2535,3765" fill="rgb(60,13,58)" stroke="rgb(60,13,58)" />
<polygon points="2000,3878 1819,3835 2000,3796 2181,3835" fill="rgb(36,155,74)" stroke="rgb(36,155,74)" />
<polygon points="1634,3842 1465,3765 1650,3761 1819,3835" fill="rgb(61,14,61)" stroke="rgb(61,14,61)" />
<polygon points="1281,3735 1131,3627 1313,3659 1465,3765" fill="rgb(58,36,109)" stroke="rgb(58,36,109)" />
<polygon points="957,3562 830,3426 1002,3493 1131,3627" fill="rgb(27,4,11)" stroke="rgb(27,4,11)" />
<polygon points="672,3328 574,3170 730,3270 830,3426" fill="rgb(57,11,50)" stroke="rgb(57,11,50)" />
<polygon points="438,3043 374,2869 507,2998 574,3170" fill="rgb(10,2,2)" stroke="rgb(10,2,2)" />
<polygon points="265,2719 235,2535 341,2687 374,2869" fill="rgb(35,5,17)" stroke="rgb(35,5,17)" />
<polygon points="158,2366 165,2180 239,2350 235,2535" fill="rgb(41,6,23)" stroke="rgb(41,6,23)" />
<polygon points="122,1998 165,1820 204,1998 165,2180" fill="rgb(61,15,64)" stroke="rgb(61,15,64)" />
<polygon points="158,1634 235,1465 239,1650 165,1820" fill="rgb(29,83,136)" stroke="rgb(29,83,136)" />
<polygon points="265,1281 374,1131 341,1313 235,1465" fill="rgb(63,18,73)" stroke="rgb(63,18,73)" />
<polygon points="438,957 574,830 507,1002 374,1131" fill="rgb(62,26,92)" stroke="rgb(62,26,92)" />
<polygon points="672,672 830,574 730,730 574,830" fill="rgb(24,4,9)" stroke="rgb(24,4,9)" />
<polygon points="957,438 1131,373 1002,507 830,574" fill="rgb(60,13,58)" stroke="rgb(60,13,58)" />
<polygon points="1281,265 1465,235 1313,341 1131,373" fill="rgb(25,4,9)" stroke="rgb(25,4,9)" />
<polygon points="1634,158 1819,165 1650,239 1465,235" fill="rgb(60,13,57)" stroke="rgb(60,13,57)" />
<polygon points="2186,111 2366,158 2181,165 2000,122" fill="rgb(8,2,2)" stroke="rgb(8,2,2)" />
<polygon points="2551,184 2719,265 2535,235 2366,158" fill="rgb(62,27,94)" stroke="rgb(62,27,94)" />
<polygon points="2895,326 3043,438 2869,373 2719,265" fill="rgb(2,0,0)" stroke="rgb(2,0,0)" />
<polygon points="3204,533 3328,672 3170,574 3043,438" fill="rgb(57,39,113)" stroke="rgb(57,39,113)" />
<polygon points="3467,796 3562,957 3426,830 3328,672" fill="rgb(61,14,61)" stroke="rgb(61,14,61)" />
<polygon points="3674,1105 3735,1281 3626,1131 3562,957" fill="rgb(54,43,117)" stroke="rgb(54,43,117)" />
<polygon points="3816,1449 3842,1634 3765,1465 3735,1281" fill="rgb(62,17,69)" stroke="rgb(62,17,69)" />
<polygon points="3889,1815 3878,2002 3835,1820 3842,1634" fill="rgb(45,7,27)" stroke="rgb(45,7,27)" />
<polygon points="3889,2185 3842,2366 3835,2180 3878,2002" fill="rgb(15,132,109)" stroke="rgb(15,132,109)" />
<polygon points="3816,2551 3735,2719 3765,2535 3842,2366" fill="rgb(23,94,135)" stroke="rgb(23,94,135)" />
<polygon points="3674,2895 3562,3043 3626,2869 3735,2719" fill="rgb(4,1,1)" stroke="rgb(4,1,1)" />
<polygon points="3467,3204 3328,3328 3426,3170 3562,3043" fill="rgb(41,6,23)" stroke="rgb(41,6,23)" />
<polygon points="3204,3467 3043,3562 3170,3426 3328,3328" fill="rgb(47,54,128)" stroke="rgb(47,54,128)" />
<polygon points="2895,3674 2719,3735 2869,3627 3043,3562" fill="rgb(63,24,89)" stroke="rgb(63,24,89)" />
<polygon points="2551,3816 2366,3842 2535,3765 2719,3735" fill="rgb(62,17,69)" stroke="rgb(62,17,69)" />
<polygon points="2186,3889 2000,3878 2181,3835 2366,3842" fill="rgb(62,16,66)" stroke="rgb(62,16,66)" />
<polygon points="1814,3889 1634,3842 1819,3835 2000,3878" fill="rgb(52,47,122)" stroke="rgb(52,47,122)" />
<polygon points="1449,3816 1281,3735 1465,3765 1634,3842" fill="rgb(63,20,78)" stroke="rgb(63,20,78)" />
<polygon points="1105,3674 957,3562 1131,3627 1281,3735" fill="rgb(9,2,2)" stroke="rgb(9,2,2)" />
<polygon points="796,3467 672,3328 830,3426 957,3562" fill="rgb(60,14,60)" stroke="rgb(60,14,60)" />
<polygon points="533,3204 438,3043 574,3170 672,3328" fill="rgb(52,9,39)" stroke="rgb(52,9,39)" />
<polygon points="326,2895 265,2719 374,2869 438,3043" fill="rgb(39,6,21)" stroke="rgb(39,6,21)" />
<polygon points="184,2551 158,2366 235,2535 265,2719" fill="rgb(62,25,91)" stroke="rgb(62,25,91)" />
<polygon points="111,2185 122,1998 165,2180 158,2366" fill="rgb(63,18,73)" stroke="rgb(63,18,73)" />
<polygon points="111,1815 158,1634 165,1820 122,1998" fill="rgb(28,4,11)" stroke="rgb(28,4,11)" />
<polygon points="184,1449 265,1281 235,1465 158,1634" fill="rgb(39,66,134)" stroke="rgb(39,66,134)" />
<polygon points="326,1105 438,957 374,1131 265,1281" fill="rgb(45,7,28)" stroke="rgb(45,7,28)" />
<polygon points="533,796 672,672 574,830 438,957" fill="rgb(18,139,101)" stroke="rgb(18,139,101)" />
<polygon points="796,533 957,438 830,574 672,672" fill="rgb(17,3,5)" stroke="rgb(17,3,5)" />
<polygon points="1105,326 1281,265 1131,373 957,438" fill="rgb(37,6,18)" stroke="rgb(37,6,18)" />
<polygon points="1449,184 1634,158 1465,235 1281,265" fill="rgb(61,14,61)" stroke="rgb(61,14,61)" />
<polygon points="1814,111 2000,122 1819,165 1634,158" fill="rgb(51,9,36)" stroke="rgb(51,9,36)" />
<polygon points="2000,95 2186,111 2000,122 1814,111" fill="rgb(60,13,58)" stroke="rgb(60,13,58)" />
<polygon points="2372,132 2551,184 2366,158 2186,111" fill="rgb(37,6,18)" stroke="rgb(37,6,18)" />
<polygon points="2729,240 2895,326 2719,265 2551,184" fill="rgb(22,4,7)" stroke="rgb(22,4,7)" />
<polygon points="3058,416 3204,533 3043,438 2895,326" fill="rgb(59,13,56)" stroke="rgb(59,13,56)" />
<polygon points="3347,653 3467,796 3328,672 3204,533" fill="rgb(23,4,8)" stroke="rgb(23,4,8)" />
<polygon points="3584,942 3674,1105 3562,957 3467,796" fill="rgb(46,55,128)" stroke="rgb(46,55,128)" />
<polygon points="3760,1271 3816,1449 3735,1281 3674,1105" fill="rgb(45,7,28)" stroke="rgb(45,7,28)" />
<polygon points="3868,1629 3889,1815 3842,1634 3816,1449" fill="rgb(61,14,61)" stroke="rgb(61,14,61)" />
<polygon points="3904,2002 3889,2185 3878,2002 3889,1815" fill="rgb(62,26,92)" stroke="rgb(62,26,92)" />
<polygon points="3868,2371 3816,2551 3842,2366 3889,2185" fill="rgb(62,28,96)" stroke="rgb(62,28,96)" />
<polygon points="3760,2729 3674,2895 3735,2719 3816,2551" fill="rgb(54,43,118)" stroke="rgb(54,43,118)" />
<polygon points="3584,3058 3467,3204 3562,3043 3674,2895" fill="rgb(35,6,17)" stroke="rgb(35,6,17)" />
<polygon points="3347,3347 3204,3467 3328,3328 3467,3204" fill="rgb(13,2,3)" stroke="rgb(13,2,3)" />
<polygon points="3058,3584 2895,3674 3043,3562 3204,3467" fill="rgb(58,12,51)" stroke="rgb(58,12,51)" />
<polygon points="2729,3760 2551,3816 2719,3735 2895,3674" fill="rgb(59,13,55)" stroke="rgb(59,13,55)" />
<polygon points="2372,3868 2186,3889 2366,3842 2551,3816" fill="rgb(36,6,17)" stroke="rgb(36,6,17)" />
<polygon points="2000,3905 1814,3889 2000,3878 2186,3889" fill="rgb(31,152,79)" stroke="rgb(31,152,79)" />
<polygon points="1628,3868 1449,3816 1634,3842 1814,3889" fill="rgb(15,3,4)" stroke="rgb(15,3,4)" />
<polygon points="1271,3760 1105,3674 1281,3735 1449,3816" fill="rgb(58,36,109)" stroke="rgb(58,36,109)" />
<polygon points="942,3584 796,3467 957,3562 1105,3674" fill="rgb(51,9,36)" stroke="rgb(51,9,36)" />
<polygon points="653,3347 533,3204 672,3328 796,3467" fill="rgb(53,46,121)" stroke="rgb(53,46,121)" />
<polygon points="416,3058 326,2895 438,3043 533,3204" fill="rgb(17,3,5)" stroke="rgb(17,3,5)" />
<polygon points="240,2729 184,2551 265,2719 326,2895" fill="rgb(60,14,59)" stroke="rgb(60,14,59)" />
<polygon points="132,2371 111,2185 158,2366 184,2551" fill="rgb(48,8,32)" stroke="rgb(48,8,32)" />
<polygon points="96,1998 111,1815 122,1998 111,2185" fill="rgb(26,4,10)" stroke="rgb(26,4,10)" />
<polygon points="132,1629 184,1449 158,1634 111,1815" fill="rgb(58,37,111)" stroke="rgb(58,37,111)" />
<polygon points="240,1271 326,1105 265,1281 184,1449" fill="rgb(62,25,91)" stroke="rgb(62,25,91)" />
<polygon points="416,942 533,796 438,957 326,1105" fill="rgb(13,2,3)" stroke="rgb(13,2,3)" />
<polygon points="653,653 796,533 672,672 533,796" fill="rgb(54,10,43)" stroke="rgb(54,10,43)" />
<polygon points="942,416 1105,326 957,438 796,533" fill="rgb(18,3,5)" stroke="rgb(18,3,5)" />
<polygon points="1271,240 1449,184 1281,265 1105,326" fill="rgb(63,19,77)" stroke="rgb(63,19,77)" />
<polygon points="1628,132 1814,111 1634,158 1449,184" fill="rgb(47,8,30)" stroke="rgb(47,8,30)" />
</g>
<circle cx="2000" cy="2000" r="331" stroke-linejoin="round" stroke="white" stroke-dasharray="50,100" stroke-width="10" fill="none" />
<circle cx="2000" cy="2000" r="952" stroke-linejoin="round" stroke="white" stroke-dasharray="50,100" stroke-width="10" fill="none" />
<circle cx="2000" cy="2000" r="1650" stroke-linejoin="round" stroke="white" stroke-dasharray="50,100" stroke-width="10" fill="none" />
<circle cx="2000" cy="2000" r="1905" stroke-linejoin="round" stroke="white" stroke-dasharray="50,100" stroke-width="10" fill="none" />
<line x1="2000" y1="2331" x2="2000" y2="3905" stroke="white" stroke-width="10" stroke-dasharray="50,100" stroke-linejoin="round" fill="none" />
<line x1="2165" y1="2286" x2="2952" y2="3650" stroke="white" stroke-width="10" stroke-dasharray="50,100" stroke-linejoin="round" fill="none" />
<line x1="2286" y1="2165" x2="3650" y2="2952" stroke="white" stroke-width="10" stroke-dasharray="50,100" stroke-linejoin="round" fill="none" />
<line x1="2331" y1="2000" x2="3905" y2="2000" stroke="white" stroke-width="10" stroke-dasharray="50,100" stroke-linejoin="round" fill="none" />
<line x1="2286" y1="1835" x2="3650" y2="1048" stroke="white" stroke-width="10" stroke-dasharray="50,100" stroke-linejoin="round" fill="none" />
<line x1="2165" y1="1714" x2="2952" y2="350" stroke="white" stroke-width="10" stroke-dasharray="50,100" stroke-linejoin="round" fill="none" />
<line x1="2000" y1="1669" x2="2000" y2="95" stroke="white" stroke-width="10" stroke-dasharray="50,100" stroke-linejoin="round" fill="none" />
<line x1="1835" y1="1714" x2="1048" y2="350" stroke="white" stroke-width="10" stroke-dasharray="50,100" stroke-linejoin="round" fill="none" />
<line x1="1714" y1="1835" x2="350" y2="1048" stroke="white" stroke-width="10" stroke-dasharray="50,100" stroke-linejoin="round" fill="none" />
<line x1="1669" y1="2000" x2="95" y2="2000" stroke="white" stroke-width="10" stroke-dasharray="50,100" stroke-linejoin="round" fill="none" />
<line x1="1714" y1="2165" x2="350" y2="2952" stroke="white" stroke-width="10" stroke-dasharray="50,100" stroke-linejoin="round" fill="none" />
<line x1="1835" y1="2286" x2="1048" y2="3650" stroke="white" stroke-width="10" stroke-dasharray="50,100" stroke-linejoin="round" fill="none" />
</svg>
