<?xml version="1.0" standalone="no"?>
<!DOCTYPE svg PUBLIC "-//W3C//DTD SVG 1.1//EN" "http://www.w3.org/Graphics/SVG/1.1/DTD/svg11.dtd">
<svg width="12cm" height="12cm" viewBox="0 0 4000 4000" version="1.1" xmlns="http://www.w3.org/2000/svg" xmlns:xlink="http://www.w3.org/1999/xlink">
<desc>"Gridless imaging from visibilities."</desc>
<g stroke-opacity="1.0" stroke-linejoin="round" stroke-width="2" >
<polygon points="2538,1462 2387,2000 2000,2000 2000,1613 " fill="rgb(57.4,37.4,111.3)" stroke="rgb(57.4,37.4,111.3)" />
<polygon points="2538,2538 2000,2387 2000,2000 2387,2000 " stroke="rgb(52.5,159.2,60.8)" fill="rgb(52.5,159.2,60.8)" />
<polygon points="1462,2538 1613,2000 2000,2000 2000,2387 " fill="rgb(0.0,0.0,0.0)" stroke="rgb(0.0,0.0,0.0)" />
<polygon points="1462,1462 2000,1613 2000,2000 1613,2000 " fill="rgb(65.1,160.8,54.0)" stroke="rgb(65.1,160.8,54.0)" />
<polygon points="2555,1038 2538,1462 2000,1613 2000,1239 " fill="rgb(22.3,95.9,134.4)" stroke="rgb(22.3,95.9,134.4)" />
<polygon points="2962,1445 2761,2000 2387,2000 2538,1462 " fill="rgb(14.5,128.2,113.8)" stroke="rgb(14.5,128.2,113.8)" />
<polygon points="2962,2555 2538,2538 2387,2000 2761,2000 " stroke="rgb(59.4,33.5,105.8)" fill="rgb(59.4,33.5,105.8)" />
<polygon points="2555,2962 2000,2761 2000,2387 2538,2538 " stroke="rgb(20.9,99.1,133.4)" fill="rgb(20.9,99.1,133.4)" />
<polygon points="1445,2962 1462,2538 2000,2387 2000,2761 " fill="rgb(17.9,106.6,130.1)" stroke="rgb(17.9,106.6,130.1)" />
<polygon points="1038,2555 1239,2000 1613,2000 1462,2538 " fill="rgb(13.6,2.6,3.4)" stroke="rgb(13.6,2.6,3.4)" />
<polygon points="1038,1445 1462,1462 1613,2000 1239,2000 " fill="rgb(18.0,140.1,99.6)" stroke="rgb(18.0,140.1,99.6)" />
<polygon points="1445,1038 2000,1239 2000,1613 1462,1462 " fill="rgb(62.9,19.2,76.8)" stroke="rgb(62.9,19.2,76.8)" />
<polygon points="2543,688 2555,1038 2000,1239 2000,890 " fill="rgb(59.5,33.2,105.3)" stroke="rgb(59.5,33.2,105.3)" />
<polygon points="3004,996 2962,1445 2538,1462 2555,1038 " fill="rgb(56.1,39.8,114.3)" stroke="rgb(56.1,39.8,114.3)" />
<polygon points="3312,1457 3110,2000 2761,2000 2962,1445 " stroke="rgb(229.2,201.5,255.0)" fill="rgb(229.2,201.5,255.0)" />
<polygon points="3312,2543 2962,2555 2761,2000 3110,2000 " stroke="rgb(115.6,159.6,43.6)" fill="rgb(115.6,159.6,43.6)" />
<polygon points="3004,3004 2555,2962 2538,2538 2962,2555 " fill="rgb(14.7,119.8,121.4)" stroke="rgb(14.7,119.8,121.4)" />
<polygon points="2543,3312 2000,3110 2000,2761 2555,2962 " fill="rgb(57.1,38.0,112.0)" stroke="rgb(57.1,38.0,112.0)" />
<polygon points="1457,3312 1445,2962 2000,2761 2000,3110 " fill="rgb(62.2,26.3,93.2)" stroke="rgb(62.2,26.3,93.2)" />
<polygon points="996,3004 1038,2555 1462,2538 1445,2962 " fill="rgb(56.2,39.6,114.0)" stroke="rgb(56.2,39.6,114.0)" />
<polygon points="688,2543 890,2000 1239,2000 1038,2555 " stroke="rgb(19.1,103.5,131.6)" fill="rgb(19.1,103.5,131.6)" />
<polygon points="688,1457 1038,1445 1239,2000 890,2000 " fill="rgb(116.8,159.5,43.7)" stroke="rgb(116.8,159.5,43.7)" />
<polygon points="996,996 1445,1038 1462,1462 1038,1445 " fill="rgb(51.0,48.2,123.0)" stroke="rgb(51.0,48.2,123.0)" />
<polygon points="1457,688 2000,890 2000,1239 1445,1038 " fill="rgb(39.9,65.3,133.5)" stroke="rgb(39.9,65.3,133.5)" />
<polygon points="2322,382 2543,688 2000,890 2000,580 " stroke="rgb(95.4,161.1,45.1)" fill="rgb(95.4,161.1,45.1)" />
<polygon points="2916,628 3004,996 2555,1038 2543,688 " stroke="rgb(49.4,50.7,125.0)" fill="rgb(49.4,50.7,125.0)" />
<polygon points="3372,1084 3312,1457 2962,1445 3004,996 " stroke="rgb(26.2,149.2,85.0)" fill="rgb(26.2,149.2,85.0)" />
<polygon points="3618,1678 3420,2000 3110,2000 3312,1457 " fill="rgb(16.0,135.7,105.3)" stroke="rgb(16.0,135.7,105.3)" />
<polygon points="3618,2322 3312,2543 3110,2000 3420,2000 " fill="rgb(25.3,148.5,86.2)" stroke="rgb(25.3,148.5,86.2)" />
<polygon points="3372,2916 3004,3004 2962,2555 3312,2543 " fill="rgb(99.7,160.9,44.5)" stroke="rgb(99.7,160.9,44.5)" />
<polygon points="2916,3372 2543,3312 2555,2962 3004,3004 " fill="rgb(233.6,142.9,117.8)" stroke="rgb(233.6,142.9,117.8)" />
<polygon points="2322,3618 2000,3420 2000,3110 2543,3312 " stroke="rgb(47.8,7.8,31.5)" fill="rgb(47.8,7.8,31.5)" />
<polygon points="1678,3618 1457,3312 2000,3110 2000,3420 " fill="rgb(71.7,161.2,51.3)" stroke="rgb(71.7,161.2,51.3)" />
<polygon points="1084,3372 996,3004 1445,2962 1457,3312 " fill="rgb(60.6,30.7,101.3)" stroke="rgb(60.6,30.7,101.3)" />
<polygon points="628,2916 688,2543 1038,2555 996,3004 " stroke="rgb(252.7,152.3,195.1)" fill="rgb(252.7,152.3,195.1)" />
<polygon points="382,2322 580,2000 890,2000 688,2543 " fill="rgb(171.1,151.9,57.1)" stroke="rgb(171.1,151.9,57.1)" />
<polygon points="382,1678 688,1457 890,2000 580,2000 " fill="rgb(51.3,47.8,122.6)" stroke="rgb(51.3,47.8,122.6)" />
<polygon points="628,1084 996,996 1038,1445 688,1457 " stroke="rgb(30.2,151.8,79.8)" fill="rgb(30.2,151.8,79.8)" />
<polygon points="1084,628 1457,688 1445,1038 996,996 " fill="rgb(15.9,135.3,105.9)" stroke="rgb(15.9,135.3,105.9)" />
<polygon points="1678,382 2000,580 2000,890 1457,688 " fill="rgb(56.5,39.1,113.4)" stroke="rgb(56.5,39.1,113.4)" />
<polygon points="2000,204 2322,382 2000,580 1678,382 " fill="rgb(92.8,161.2,45.5)" stroke="rgb(92.8,161.2,45.5)" />
<polygon points="2687,341 2916,628 2543,688 2322,382 " stroke="rgb(14.6,120.7,120.7)" fill="rgb(14.6,120.7,120.7)" />
<polygon points="3270,730 3372,1084 3004,996 2916,628 " fill="rgb(30.3,151.9,79.7)" stroke="rgb(30.3,151.9,79.7)" />
<polygon points="3659,1313 3618,1678 3312,1457 3372,1084 " stroke="rgb(14.4,126.0,116.0)" fill="rgb(14.4,126.0,116.0)" />
<polygon points="3796,2000 3618,2322 3420,2000 3618,1678 " stroke="rgb(89.5,161.3,46.1)" fill="rgb(89.5,161.3,46.1)" />
<polygon points="3659,2687 3372,2916 3312,2543 3618,2322 " stroke="rgb(30.0,151.7,80.1)" fill="rgb(30.0,151.7,80.1)" />
<polygon points="3270,3270 2916,3372 3004,3004 3372,2916 " fill="rgb(58.8,12.5,54.4)" stroke="rgb(58.8,12.5,54.4)" />
<polygon points="2687,3659 2322,3618 2543,3312 2916,3372 " fill="rgb(244.5,143.4,142.4)" stroke="rgb(244.5,143.4,142.4)" />
<polygon points="2000,3796 1678,3618 2000,3420 2322,3618 " stroke="rgb(195.0,147.9,72.1)" fill="rgb(195.0,147.9,72.1)" />
<polygon points="1313,3659 1084,3372 1457,3312 1678,3618 " stroke="rgb(33.2,153.4,76.4)" fill="rgb(33.2,153.4,76.4)" />
<polygon points="730,3270 628,2916 996,3004 1084,3372 " stroke="rgb(0.8,0.2,0.1)" fill="rgb(0.8,0.2,0.1)" />
<polygon points="341,2687 382,2322 688,2543 628,2916 " stroke="rgb(19.5,102.5,132.1)" fill="rgb(19.5,102.5,132.1)" />
<polygon points="204,2000 382,1678 580,2000 382,2322 " fill="rgb(18.5,105.1,130.9)" stroke="rgb(18.5,105.1,130.9)" />
<polygon points="341,1313 628,1084 688,1457 382,1678 " stroke="rgb(46.9,7.6,30.2)" fill="rgb(46.9,7.6,30.2)" />
<polygon points="730,730 1084,628 996,996 628,1084 " stroke="rgb(24.1,4.0,8.6)" fill="rgb(24.1,4.0,8.6)" />
<polygon points="1313,341 1678,382 1457,688 1084,628 " stroke="rgb(57.4,11.5,50.3)" fill="rgb(57.4,11.5,50.3)" />
<polygon points="2366,158 2687,341 2322,382 2000,204 " fill="rgb(18.6,104.7,131.0)" stroke="rgb(18.6,104.7,131.0)" />
<polygon points="3043,438 3270,730 2916,628 2687,341 " fill="rgb(236.8,185.9,252.5)" stroke="rgb(236.8,185.9,252.5)" />
<polygon points="3562,957 3659,1313 3372,1084 3270,730 " fill="rgb(19.0,141.8,97.1)" stroke="rgb(19.0,141.8,97.1)" />
<polygon points="3842,1634 3796,2000 3618,1678 3659,1313 " fill="rgb(102.8,160.7,44.1)" stroke="rgb(102.8,160.7,44.1)" />
<polygon points="3842,2366 3659,2687 3618,2322 3796,2000 " stroke="rgb(243.1,143.2,138.7)" fill="rgb(243.1,143.2,138.7)" />
<polygon points="3562,3043 3270,3270 3372,2916 3659,2687 " fill="rgb(15.1,132.6,109.1)" stroke="rgb(15.1,132.6,109.1)" />
<polygon points="3043,3562 2687,3659 2916,3372 3270,3270 " fill="rgb(46.5,7.5,29.7)" stroke="rgb(46.5,7.5,29.7)" />
<polygon points="2366,3842 2000,3796 2322,3618 2687,3659 " stroke="rgb(17.3,108.6,129.0)" fill="rgb(17.3,108.6,129.0)" />
<polygon points="1634,3842 1313,3659 1678,3618 2000,3796 " fill="rgb(51.1,159.0,61.6)" stroke="rgb(51.1,159.0,61.6)" />
<polygon points="957,3562 730,3270 1084,3372 1313,3659 " fill="rgb(53.6,44.0,119.0)" stroke="rgb(53.6,44.0,119.0)" />
<polygon points="438,3043 341,2687 628,2916 730,3270 " stroke="rgb(34.0,74.7,136.0)" fill="rgb(34.0,74.7,136.0)" />
<polygon points="158,2366 204,2000 382,2322 341,2687 " stroke="rgb(33.9,74.8,136.0)" fill="rgb(33.9,74.8,136.0)" />
<polygon points="158,1634 341,1313 382,1678 204,2000 " stroke="rgb(91.9,161.2,45.6)" fill="rgb(91.9,161.2,45.6)" />
<polygon points="438,957 730,730 628,1084 341,1313 " stroke="rgb(73.6,161.3,50.6)" fill="rgb(73.6,161.3,50.6)" />
<polygon points="957,438 1313,341 1084,628 730,730 " stroke="rgb(62.5,24.9,90.4)" fill="rgb(62.5,24.9,90.4)" />
<polygon points="1634,158 2000,204 1678,382 1313,341 " stroke="rgb(31.2,79.4,136.4)" fill="rgb(31.2,79.4,136.4)" />
<polygon points="2000,95 2366,158 2000,204 1634,158 " fill="rgb(61.1,14.9,63.5)" stroke="rgb(61.1,14.9,63.5)" />
<polygon points="2729,240 3043,438 2687,341 2366,158 " stroke="rgb(63.0,20.5,80.1)" fill="rgb(63.0,20.5,80.1)" />
<polygon points="3347,653 3562,957 3270,730 3043,438 " fill="rgb(60.5,31.1,102.0)" stroke="rgb(60.5,31.1,102.0)" />
<polygon points="3760,1271 3842,1634 3659,1313 3562,957 " fill="rgb(23.6,93.3,135.1)" stroke="rgb(23.6,93.3,135.1)" />
<polygon points="3905,2000 3842,2366 3796,2000 3842,1634 " stroke="rgb(42.0,62.1,132.1)" fill="rgb(42.0,62.1,132.1)" />
<polygon points="3760,2729 3562,3043 3659,2687 3842,2366 " stroke="rgb(33.5,153.5,76.1)" fill="rgb(33.5,153.5,76.1)" />
<polygon points="3347,3347 3043,3562 3270,3270 3562,3043 " stroke="rgb(19.6,3.4,6.0)" fill="rgb(19.6,3.4,6.0)" />
<polygon points="2729,3760 2366,3842 2687,3659 3043,3562 " fill="rgb(16.7,110.3,128.0)" stroke="rgb(16.7,110.3,128.0)" />
<polygon points="2000,3905 1634,3842 2000,3796 2366,3842 " stroke="rgb(255.0,255.0,255.0)" fill="rgb(255.0,255.0,255.0)" />
<polygon points="1271,3760 957,3562 1313,3659 1634,3842 " fill="rgb(23.2,94.0,134.9)" stroke="rgb(23.2,94.0,134.9)" />
<polygon points="653,3347 438,3043 730,3270 957,3562 " stroke="rgb(23.2,146.7,89.3)" fill="rgb(23.2,146.7,89.3)" />
<polygon points="240,2729 158,2366 341,2687 438,3043 " stroke="rgb(48.6,52.0,126.1)" fill="rgb(48.6,52.0,126.1)" />
<polygon points="95,2000 158,1634 204,2000 158,2366 " stroke="rgb(59.1,12.7,55.4)" fill="rgb(59.1,12.7,55.4)" />
<polygon points="240,1271 438,957 341,1313 158,1634 " fill="rgb(16.0,113.0,126.4)" stroke="rgb(16.0,113.0,126.4)" />
<polygon points="653,653 957,438 730,730 438,957 " stroke="rgb(62.6,18.0,73.3)" fill="rgb(62.6,18.0,73.3)" />
<polygon points="1271,240 1634,158 1313,341 957,438 " fill="rgb(60.9,14.6,62.4)" stroke="rgb(60.9,14.6,62.4)" />
</g>
<circle cx="2000" cy="2000" r="331" stroke-linejoin="round" stroke="white" stroke-dasharray="50,100" stroke-width="10" fill="none" />
<circle cx="2000" cy="2000" r="952" fill="none" stroke-dasharray="50,100" stroke="white" stroke-width="10" stroke-linejoin="round" />
<circle cx="2000" cy="2000" r="1650" fill="none" stroke-dasharray="50,100" stroke-width="10" stroke-linejoin="round" stroke="white" />
<circle cx="2000" cy="2000" r="1905" fill="none" stroke-width="10" stroke="white" stroke-linejoin="round" stroke-dasharray="50,100" />
<line x1="2000" y1="2331" x2="2000" y2="3905" stroke="white" stroke-width="10" stroke-dasharray="50,100" stroke-linejoin="round" fill="none" />
<line x1="2165" y1="2286" x2="2952" y2="3650" stroke-dasharray="50,100" stroke-linejoin="round" stroke="white" stroke-width="10" fill="none" />
<line x1="2286" y1="2165" x2="3650" y2="2952" stroke-width="10" stroke-linejoin="round" stroke="white" stroke-dasharray="50,100" fill="none" />
<line x1="2331" y1="2000" x2="3905" y2="2000" fill="none" stroke-dasharray="50,100" stroke-width="10" stroke-linejoin="round" stroke="white" />
<line x1="2286" y1="1835" x2="3650" y2="1048" stroke-dasharray="50,100" stroke-width="10" stroke="white" stroke-linejoin="round" fill="none" />
<line x1="2165" y1="1714" x2="2952" y2="350" stroke-linejoin="round" fill="none" stroke-width="10" stroke-dasharray="50,100" stroke="white" />
<line x1="2000" y1="1669" x2="2000" y2="95" stroke-width="10" stroke-linejoin="round" stroke="white" stroke-dasharray="50,100" fill="none" />
<line x1="1835" y1="1714" x2="1048" y2="350" stroke="white" stroke-dasharray="50,100" stroke-width="10" stroke-linejoin="round" fill="none" />
<line x1="1714" y1="1835" x2="350" y2="1048" stroke-width="10" stroke-dasharray="50,100" fill="none" stroke="white" stroke-linejoin="round" />
<line x1="1669" y1="2000" x2="95" y2="2000" stroke-width="10" fill="none" stroke="white" stroke-linejoin="round" stroke-dasharray="50,100" />
<line x1="1714" y1="2165" x2="350" y2="2952" stroke-width="10" stroke-dasharray="50,100" fill="none" stroke="white" stroke-linejoin="round" />
<line x1="1835" y1="2286" x2="1048" y2="3650" stroke-dasharray="50,100" fill="none" stroke="white" stroke-width="10" stroke-linejoin="round" />
</svg>
